<svg width="32" height="26" viewBox="0 0 32 26" fill="none" xmlns="http://www.w3.org/2000/svg">
<path fill-rule="evenodd" clip-rule="evenodd" d="M14.625 0.0310016C10.2304 0.240627 5.94825 1.4875 2.20519 3.6475C1.21231 4.22044 0.2055 4.89013 0.0908125 5.05394C0.012375 5.16594 0 6.50794 0 14.9238C0 21.7814 0.02 24.7013 0.0675 24.7901C0.238187 25.109 -0.5895 25.0933 16 25.0933C32.5895 25.0933 31.7618 25.109 31.9325 24.7901C31.9794 24.7024 32 22.9146 32 18.9183C32 13.2593 31.9981 13.1702 31.8745 13.013C31.7696 12.8797 31.5974 12.8173 30.8276 12.6333C28.1083 11.9836 24.7498 11.4309 22.1695 11.2086C21.6611 11.1648 21.2238 11.1139 21.1976 11.0954C21.1714 11.0771 20.7014 9.60101 20.1532 7.81538C19.605 6.02975 19.1097 4.511 19.0527 4.44038C18.9617 4.32782 18.8584 4.30819 18.2126 4.28075L17.4761 4.2495L16.9849 2.28075C16.6059 0.761814 16.4621 0.280064 16.3557 0.172252C16.1767 -0.0089985 15.9139 -0.0304359 14.625 0.0310016ZM15.9934 2.68969C16.2117 3.56775 16.3799 4.2945 16.3671 4.30482C16.3542 4.31507 15.7953 4.37007 15.125 4.427C11.7203 4.71632 8.26656 5.45888 5 6.60407C4.17169 6.89444 2.25625 7.66407 1.54688 7.99151L1.0625 8.21513V6.91019V5.60532L1.54688 5.29632C3.20331 4.23982 5.10287 3.29363 6.80737 2.67613C9.487 1.70538 12.4335 1.13269 14.9075 1.10188L15.5962 1.09325L15.9934 2.68969ZM11.75 2.937V3.71825H12.2812H12.8125V2.937V2.15575H12.2812H11.75V2.937ZM8.5625 3.47075V4.28582L9.07812 4.26763L9.59375 4.2495L9.61125 3.45263L9.62875 2.65575H9.09562H8.5625V3.47075ZM5.3125 4.53075V5.34325H5.84375H6.375V4.53075V3.71825H5.84375H5.3125V4.53075ZM2.125 5.8745V6.40575H2.65625H3.1875V5.8745V5.34325H2.65625H2.125V5.8745ZM19.1462 8.16063C19.622 9.71007 20 10.9891 19.9862 11.0029C19.9724 11.0167 19.3159 10.9971 18.5274 10.9593C16.8024 10.8767 13.4408 10.9258 11.5625 11.061C9.12675 11.2364 6.41537 11.5816 4.1875 12.0001C3.39044 12.1498 1.37062 12.573 1.17081 12.6321C1.06694 12.6629 1.06137 12.5677 1.07706 11.0246L1.09375 9.38432L1.875 9.02376C6.74025 6.77794 12.5655 5.41469 17.5625 5.35238L18.2812 5.34344L19.1462 8.16063ZM15.4522 8.26513L15.4688 10.1245H16H16.5312L16.5478 8.26513L16.5644 6.40575H16H15.4356L15.4522 8.26513ZM11.2156 6.98507C11.1989 7.02869 11.1927 7.75288 11.202 8.59444L11.2188 10.1245L11.7344 10.1426L12.25 10.1608V8.53325V6.90575H11.7481C11.4001 6.90575 11.2367 6.93007 11.2156 6.98507ZM7.45188 8.79638L7.46875 10.1245H8H8.53125L8.54813 8.79638L8.565 7.46826H8H7.435L7.45188 8.79638ZM4.8125 9.59326V10.6558H5.34375H5.875V9.59326V8.53076H5.34375H4.8125V9.59326ZM2.125 10.4058V11.2183H2.65625H3.1875V10.4058V9.59326H2.65625H2.125V10.4058ZM20 12.0922C23.3051 12.3179 26.6665 12.7962 29.7656 13.4817L30.9375 13.7409V16.1559V18.5709L30.0469 18.4276C21.1294 16.9926 11.2551 16.9936 1.95312 18.4306L1.0625 18.5682V16.1581V13.748L1.70312 13.6034C5.77006 12.6859 9.15506 12.2358 13.7188 12.0056C14.5418 11.9641 19.0299 12.0259 20 12.0922ZM11.1875 14.6558V16.5308H11.7188H12.25V14.6558V12.7808H11.7188H11.1875V14.6558ZM15.4815 12.8201C15.4573 12.8443 15.4375 13.6891 15.4375 14.6974V16.5308H16.0009H16.5644L16.5478 14.6714L16.5312 12.812L16.0284 12.7941C15.7518 12.7842 15.5057 12.7959 15.4815 12.8201ZM19.75 14.6558V16.5308H20.2812H20.8125V14.6558V12.7808H20.2812H19.75V14.6558ZM7.4375 14.937V16.5308H8H8.5625V14.937V13.3433H8H7.4375V14.937ZM23.4375 14.937V16.5308H24H24.5625V14.937V13.3433H24H23.4375V14.937ZM4.8125 15.4708V17.0983L5.32812 17.0801L5.84375 17.062L5.86044 15.4526L5.87712 13.8433H5.34481H4.8125V15.4708ZM26.1396 15.4526L26.1562 17.062L26.6719 17.0801L27.1875 17.0983V15.4708V13.8433H26.6552H26.1229L26.1396 15.4526ZM2.13937 15.7339L2.15625 17.062L2.67188 17.0801L3.1875 17.0983V15.752V14.4058H2.655H2.1225L2.13937 15.7339ZM28.8125 15.752V17.0983L29.3281 17.0801L29.8438 17.062L29.8606 15.7339L29.8775 14.4058H29.345H28.8125V15.752ZM19.25 18.4696C22.1274 18.5819 24.6829 18.7892 27.375 19.1287C28.5701 19.2794 30.5191 19.5679 30.7969 19.6353L30.9375 19.6693V21.8188V23.9683H16H1.0625V21.817V19.6657L1.23438 19.6301C2.45687 19.3767 6.12519 18.9207 8.53125 18.7231C12.0532 18.4338 15.9631 18.3413 19.25 18.4696ZM11.1875 21.062V22.9058H11.7188H12.25V21.062V19.2183H11.7188H11.1875V21.062ZM15.4375 21.062V22.9058H16H16.5625V21.062V19.2183H16H15.4375V21.062ZM19.75 21.062V22.9058H20.2812H20.8125V21.062V19.2183H20.2812H19.75V21.062ZM7.4815 19.7576C7.45731 19.7818 7.4375 20.5 7.4375 21.3537V22.9058H8.00106H8.56462L8.54794 21.3276L8.53125 19.7495L8.02837 19.7316C7.75175 19.7217 7.50569 19.7334 7.4815 19.7576ZM23.4815 19.7576C23.4573 19.7818 23.4375 20.5 23.4375 21.3537V22.9058H24.0011H24.5646L24.5479 21.3276L24.5312 19.7495L24.0284 19.7316C23.7518 19.7217 23.5057 19.7334 23.4815 19.7576ZM4.8125 21.5933V22.9058H5.34375H5.875V21.5933V20.2808H5.34375H4.8125V21.5933ZM26.125 21.5933V22.9058H26.6562H27.1875V21.5933V20.2808H26.6562H26.125V21.5933ZM2.125 21.8433V22.9058H2.65625H3.1875V21.8433V20.7808H2.65625H2.125V21.8433ZM28.8125 21.8433V22.9058H29.3438H29.875V21.8433V20.7808H29.3438H28.8125V21.8433Z" fill="black"/>
</svg>
