<svg width="131" height="26" viewBox="0 0 131 26" fill="none" xmlns="http://www.w3.org/2000/svg">
<path d="M12.344 23.2724C12.364 23.1124 12.374 22.9424 12.374 22.7624C12.374 22.5624 12.384 22.3824 12.404 22.2224C12.424 21.8624 12.434 21.5024 12.434 21.1424C12.454 20.7624 12.474 20.3924 12.494 20.0324H11.384C9.14402 20.0324 7.23402 19.7324 5.65402 19.1324C4.07402 18.5324 2.88402 17.6924 2.08402 16.6124C1.30402 15.5324 0.914023 14.3024 0.914023 12.9224C0.914023 11.5424 1.30402 10.3124 2.08402 9.23237C2.88402 8.15237 4.07402 7.31237 5.65402 6.71237C7.23402 6.11237 9.14402 5.81237 11.384 5.81237H12.494V2.87237C12.234 2.87237 11.804 2.93237 11.204 3.05237C10.604 3.15237 10.074 3.25237 9.61402 3.35237L9.49402 3.17237L10.184 2.45237H15.224V2.75237C15.184 3.37237 15.164 3.84237 15.164 4.16237C15.144 4.44237 15.134 4.72237 15.134 5.00237C15.134 5.28237 15.124 5.55237 15.104 5.81237H16.184C18.444 5.81237 20.354 6.11237 21.914 6.71237C23.494 7.31237 24.674 8.15237 25.454 9.23237C26.254 10.3124 26.654 11.5424 26.654 12.9224C26.654 14.3024 26.264 15.5324 25.484 16.6124C24.704 17.6924 23.524 18.5324 21.944 19.1324C20.364 19.7324 18.444 20.0324 16.184 20.0324H15.074V23.1524C15.334 23.1524 15.764 23.1024 16.364 23.0024C16.964 22.8824 17.494 22.7724 17.954 22.6724L18.074 22.8524L17.384 23.5724H12.344V23.2724ZM12.494 19.4324V6.38237H11.444C9.78402 6.38237 8.37402 6.65237 7.21402 7.19237C6.05402 7.71237 5.16402 8.46237 4.54402 9.44237C3.94402 10.4024 3.64402 11.5624 3.64402 12.9224C3.64402 14.2824 3.94402 15.4524 4.54402 16.4324C5.16402 17.3924 6.05402 18.1324 7.21402 18.6524C8.37402 19.1724 9.78402 19.4324 11.444 19.4324H12.494ZM16.154 19.4324C17.794 19.4324 19.194 19.1724 20.354 18.6524C21.514 18.1324 22.394 17.3924 22.994 16.4324C23.614 15.4524 23.924 14.2824 23.924 12.9224C23.924 11.5624 23.614 10.4024 22.994 9.44237C22.394 8.46237 21.514 7.71237 20.354 7.19237C19.194 6.65237 17.794 6.38237 16.154 6.38237H15.074V19.4324H16.154ZM51.7141 22.8524L51.0241 23.5724H45.9541V23.2724C46.0541 21.6124 46.1041 20.0124 46.1041 18.4724V4.55237L32.3041 24.3824H31.8241V24.0824C31.8641 23.3624 31.8941 22.5624 31.9141 21.6824C31.9341 21.2224 31.9441 20.7724 31.9441 20.3324C31.9441 19.8724 31.9441 19.4224 31.9441 18.9824V2.99237C31.6841 2.99237 31.2541 3.04237 30.6541 3.14237C30.0541 3.24237 29.5241 3.34237 29.0641 3.44237L28.9441 3.26237L29.6341 2.57237H34.7041V2.87237C34.6041 4.21237 34.5541 5.81237 34.5541 7.67237V19.8824L46.7041 2.57237H48.8341V2.87237C48.7541 4.21237 48.7141 5.81237 48.7141 7.67237V23.1524C48.9741 23.1524 49.4041 23.1024 50.0041 23.0024C50.6041 22.8824 51.1341 22.7724 51.5941 22.6724L51.7141 22.8524ZM68.1293 25.4324L69.2693 23.5724H56.6393V23.2724C56.7393 21.9324 56.7893 20.3324 56.7893 18.4724V2.99237C56.5293 2.99237 56.0993 3.04237 55.4993 3.14237C54.8993 3.24237 54.3693 3.34237 53.9093 3.44237L53.7893 3.26237L54.4793 2.57237H67.3793L66.2093 0.712372L66.2393 0.682372H67.1393L68.9093 5.99237L68.6093 6.14237V6.11237C68.3293 5.59237 67.8193 5.10237 67.0793 4.64237C66.3593 4.16237 65.3993 3.77237 64.1993 3.47237C62.9993 3.17237 61.5893 3.02237 59.9693 3.02237H59.3693V12.7724H63.4793C63.5193 12.7724 63.5393 12.7524 63.5393 12.7124V10.2824H65.1893L63.8993 16.2524H63.5393V13.4324C63.5393 13.3924 63.5193 13.3724 63.4793 13.3724H59.3693V23.1224H60.1493C62.3093 23.1224 64.1093 22.9524 65.5493 22.6124C67.0093 22.2524 68.1293 21.8224 68.9093 21.3224C69.7093 20.8024 70.2593 20.2724 70.5593 19.7324L70.5893 19.6724V19.6124L70.9193 19.7624L69.0293 25.4624H68.1293V25.4324ZM72.2861 13.0724C72.2861 10.9924 72.7161 9.12237 73.5761 7.46237C74.4561 5.78237 75.6561 4.47237 77.1761 3.53237C78.6961 2.59237 80.4061 2.12237 82.3061 2.12237C83.7061 2.12237 84.8361 2.31237 85.6961 2.69237C86.5761 3.05237 87.3961 3.52237 88.1561 4.10237C88.3361 4.22237 88.5061 4.33237 88.6661 4.43237C88.8261 4.51237 88.9661 4.57237 89.0861 4.61237L88.0361 2.00237L88.0961 1.85237H88.9361L91.0361 10.3124L90.6461 10.4624C90.1861 9.22237 89.4761 8.00237 88.5161 6.80237C87.5561 5.60237 86.4761 4.62237 85.2761 3.86237C84.0961 3.08237 82.9961 2.69237 81.9761 2.69237C80.6761 2.69237 79.4961 3.14237 78.4361 4.04237C77.3761 4.92237 76.5361 6.15237 75.9161 7.73237C75.3161 9.31237 75.0161 11.0924 75.0161 13.0724C75.0161 15.0524 75.3261 16.8324 75.9461 18.4124C76.5861 19.9924 77.4461 21.2324 78.5261 22.1324C79.6061 23.0124 80.8161 23.4524 82.1561 23.4524C83.2361 23.4524 84.4161 23.0324 85.6961 22.1924C86.9961 21.3524 88.1661 20.2924 89.2061 19.0124C90.2461 17.7324 90.9661 16.4624 91.3661 15.2024L91.7861 15.3524L89.3261 24.2924H88.4861L88.4261 24.1424L89.6861 21.1124C89.5261 21.1324 89.3461 21.2024 89.1461 21.3224C88.9661 21.4424 88.7561 21.6024 88.5161 21.8024C87.9961 22.2224 87.4761 22.5824 86.9561 22.8824C86.4561 23.1824 85.8161 23.4424 85.0361 23.6624C84.2561 23.9024 83.3461 24.0224 82.3061 24.0224C80.4061 24.0224 78.6961 23.5524 77.1761 22.6124C75.6561 21.6724 74.4561 20.3724 73.5761 18.7124C72.7161 17.0324 72.2861 15.1524 72.2861 13.0724ZM111.488 6.44237L111.458 6.41237C111.238 5.95237 110.738 5.46237 109.958 4.94237C109.198 4.40237 108.258 3.94237 107.138 3.56237C106.018 3.18237 104.838 2.99237 103.598 2.99237H103.328V23.1524C103.588 23.1524 104.018 23.1024 104.618 23.0024C105.218 22.8824 105.748 22.7724 106.208 22.6724L106.328 22.8524L105.638 23.5724H100.568V23.2724C100.668 21.9324 100.718 20.3324 100.718 18.4724V2.99237H100.448C99.1879 2.99237 97.9979 3.17237 96.8779 3.53237C95.7579 3.89237 94.8279 4.33237 94.0879 4.85237C93.3479 5.37237 92.8579 5.86237 92.6179 6.32237L92.5879 6.35237L92.2879 6.20237L94.1779 0.682372H95.0779V0.712372L93.9079 2.57237H110.138L108.968 0.712372L108.998 0.682372H109.898L111.788 6.29237L111.488 6.44237ZM110.553 23.2424C110.733 22.9224 110.953 22.5324 111.213 22.0724C111.473 21.5924 111.723 21.0924 111.963 20.5724C112.523 19.4724 113.083 18.3124 113.643 17.0924C114.203 15.8724 114.653 14.8524 114.993 14.0324L118.863 4.82237C118.483 4.32237 118.073 3.92237 117.633 3.62237C117.193 3.30237 116.713 3.10237 116.193 3.02237C116.133 3.00237 116.073 2.99237 116.013 2.99237C115.973 2.97237 115.923 2.96237 115.863 2.96237L116.013 2.57237C116.693 2.57237 117.373 2.57237 118.053 2.57237C118.733 2.57237 119.413 2.57237 120.093 2.57237H121.053C121.733 4.31237 122.453 6.03237 123.213 7.73237L128.193 18.9224C128.293 19.1424 128.573 19.7624 129.033 20.7824C129.233 21.1624 129.433 21.5624 129.633 21.9824C129.853 22.3824 130.083 22.8124 130.323 23.2724V23.5724H124.953L124.263 22.8524L124.383 22.6724L124.863 22.7924C125.303 22.8924 125.753 22.9824 126.213 23.0624C126.693 23.1224 127.043 23.1524 127.263 23.1524L124.443 16.6724H114.543C114.403 17.0124 114.263 17.3524 114.123 17.6924C114.003 18.0124 113.883 18.3324 113.763 18.6524C113.043 20.5924 112.563 22.0924 112.323 23.1524C112.523 23.1524 112.853 23.1224 113.313 23.0624C113.793 22.9824 114.253 22.8924 114.693 22.7924C114.773 22.7724 114.853 22.7524 114.933 22.7324C115.033 22.7124 115.123 22.6924 115.203 22.6724L115.323 22.8524L114.633 23.5724H110.553V23.2424ZM124.203 16.1024L120.393 7.52237C120.393 7.50237 120.383 7.48237 120.363 7.46237C120.363 7.42237 120.363 7.40237 120.363 7.40237C120.203 7.06237 120.023 6.71237 119.823 6.35237C119.643 5.99237 119.453 5.65237 119.253 5.33237L114.783 16.1024H124.203Z" fill="#7A57D1"/>
</svg>
