<svg width="160" height="24" viewBox="0 0 160 24" fill="none" xmlns="http://www.w3.org/2000/svg">
<path d="M9.025 14.1223C9.025 13.4223 8.81667 12.8556 8.4 12.4223C7.98333 11.9723 7.45833 11.5806 6.825 11.2473C6.20833 10.8973 5.53333 10.5723 4.8 10.2723C4.06667 9.97227 3.38333 9.61393 2.75 9.19726C2.13333 8.76393 1.61667 8.23893 1.2 7.62227C0.783333 6.98893 0.575 6.18893 0.575 5.22226C0.575 3.8556 1.05 2.77226 2 1.97226C2.95 1.17227 4.3 0.772265 6.05 0.772265C7.06667 0.772265 7.99167 0.847265 8.825 0.997265C9.65833 1.14727 10.3083 1.33893 10.775 1.57227L10.15 3.39726C9.76667 3.21393 9.2 3.03893 8.45 2.87227C7.71667 2.7056 6.88333 2.62227 5.95 2.62227C4.85 2.62227 4.025 2.87227 3.475 3.37226C2.925 3.8556 2.65 4.4306 2.65 5.09726C2.65 5.74727 2.85833 6.28893 3.275 6.72226C3.69167 7.1556 4.20833 7.54727 4.825 7.89727C5.45833 8.2306 6.14167 8.56393 6.875 8.89727C7.60833 9.2306 8.28333 9.62227 8.9 10.0723C9.53333 10.5056 10.0583 11.0306 10.475 11.6473C10.8917 12.2639 11.1 13.0306 11.1 13.9473C11.1 14.6973 10.9667 15.3723 10.7 15.9723C10.4333 16.5723 10.0417 17.0889 9.525 17.5223C9.00833 17.9556 8.38333 18.2889 7.65 18.5223C6.91667 18.7556 6.08333 18.8723 5.15 18.8723C3.9 18.8723 2.86667 18.7723 2.05 18.5723C1.23333 18.3889 0.6 18.1806 0.15 17.9473L0.85 16.0723C1.23333 16.2889 1.8 16.5056 2.55 16.7223C3.3 16.9223 4.14167 17.0223 5.075 17.0223C5.625 17.0223 6.14167 16.9723 6.625 16.8723C7.10833 16.7556 7.525 16.5806 7.875 16.3473C8.225 16.0973 8.5 15.7889 8.7 15.4223C8.91667 15.0556 9.025 14.6223 9.025 14.1223ZM14.4063 1.24727C15.0396 1.09727 15.7229 0.997265 16.4563 0.947265C17.1896 0.897265 17.9146 0.872266 18.6313 0.872266C19.3979 0.872266 20.1729 0.947265 20.9563 1.09726C21.7563 1.24726 22.4813 1.52226 23.1313 1.92227C23.7813 2.32227 24.3063 2.87227 24.7063 3.57227C25.1229 4.27226 25.3313 5.16393 25.3313 6.24726C25.3313 7.31393 25.1396 8.21393 24.7563 8.94727C24.3729 9.6806 23.8646 10.2806 23.2313 10.7473C22.5979 11.1973 21.8729 11.5223 21.0563 11.7223C20.2396 11.9223 19.3979 12.0223 18.5312 12.0223C18.4479 12.0223 18.3063 12.0223 18.1063 12.0223C17.9229 12.0223 17.7229 12.0223 17.5063 12.0223C17.3063 12.0056 17.1063 11.9889 16.9063 11.9723C16.7063 11.9556 16.5646 11.9389 16.4813 11.9223V18.5723H14.4063V1.24727ZM18.6813 2.67226C18.2479 2.67226 17.8313 2.6806 17.4313 2.69726C17.0313 2.71393 16.7146 2.7556 16.4813 2.82226V10.0723C16.5646 10.1056 16.6979 10.1306 16.8813 10.1473C17.0646 10.1473 17.2563 10.1556 17.4563 10.1723C17.6563 10.1723 17.8479 10.1723 18.0313 10.1723C18.2146 10.1723 18.3479 10.1723 18.4313 10.1723C18.9979 10.1723 19.5563 10.1223 20.1063 10.0223C20.6729 9.9056 21.1813 9.7056 21.6313 9.42226C22.0813 9.13893 22.4396 8.73893 22.7063 8.22226C22.9896 7.7056 23.1313 7.04726 23.1313 6.24726C23.1313 5.56393 22.9979 4.99726 22.7313 4.54726C22.4813 4.0806 22.1396 3.71393 21.7063 3.44727C21.2896 3.16393 20.8146 2.96393 20.2813 2.84727C19.7479 2.7306 19.2146 2.67226 18.6813 2.67226ZM43.4311 22.8473C43.0311 22.9639 42.6394 23.0389 42.2561 23.0723C41.8727 23.1223 41.4894 23.1473 41.1061 23.1473C40.2727 23.1473 39.4561 23.0556 38.6561 22.8723C37.8727 22.7056 37.1061 22.5139 36.3561 22.2973C35.6227 22.0973 34.9144 21.9056 34.2311 21.7223C33.5477 21.5556 32.8977 21.4723 32.2811 21.4723C31.8811 21.4723 31.4977 21.5223 31.1311 21.6223V19.7973C31.3644 19.7473 31.5894 19.7056 31.8061 19.6723C32.0227 19.6389 32.2477 19.6223 32.4811 19.6223C33.1811 19.6223 33.8727 19.7056 34.5561 19.8723C35.2561 20.0556 35.9644 20.2473 36.6811 20.4473C37.3977 20.6639 38.1311 20.8556 38.8811 21.0223C39.6311 21.2056 40.4227 21.2973 41.2561 21.2973C41.9894 21.2973 42.7144 21.2139 43.4311 21.0473V22.8473ZM27.2311 9.82227C27.2311 6.9056 27.8477 4.67226 29.0811 3.12226C30.3144 1.5556 32.0727 0.772265 34.3561 0.772265C35.5894 0.772265 36.6561 0.988932 37.5561 1.42226C38.4561 1.8556 39.1977 2.47226 39.7811 3.27226C40.3811 4.0556 40.8227 5.0056 41.1061 6.12226C41.3894 7.22227 41.5311 8.4556 41.5311 9.82227C41.5311 12.7389 40.9061 14.9806 39.6561 16.5473C38.4227 18.0973 36.6561 18.8723 34.3561 18.8723C33.1394 18.8723 32.0811 18.6556 31.1811 18.2223C30.2977 17.7889 29.5561 17.1806 28.9561 16.3973C28.3727 15.5973 27.9394 14.6473 27.6561 13.5473C27.3727 12.4306 27.2311 11.1889 27.2311 9.82227ZM29.4311 9.82227C29.4311 10.7889 29.5227 11.7056 29.7061 12.5723C29.9061 13.4389 30.2061 14.2056 30.6061 14.8723C31.0061 15.5223 31.5144 16.0473 32.1311 16.4473C32.7644 16.8306 33.5061 17.0223 34.3561 17.0223C35.9061 17.0223 37.1227 16.4389 38.0061 15.2723C38.8894 14.0889 39.3311 12.2723 39.3311 9.82227C39.3311 8.87227 39.2311 7.96393 39.0311 7.09727C38.8477 6.21393 38.5477 5.44727 38.1311 4.79727C37.7311 4.1306 37.2144 3.6056 36.5811 3.22227C35.9644 2.82227 35.2227 2.62227 34.3561 2.62227C32.8227 2.62227 31.6144 3.21393 30.7311 4.39726C29.8644 5.56393 29.4311 7.37227 29.4311 9.82227ZM45.0459 1.24727C45.6792 1.1306 46.4042 1.03893 47.2209 0.972264C48.0542 0.905598 48.8126 0.872266 49.4959 0.872266C50.2626 0.872266 50.9876 0.955599 51.6709 1.12227C52.3709 1.28893 52.9792 1.56393 53.4959 1.94727C54.0292 2.3306 54.4542 2.8306 54.7709 3.44727C55.0876 4.06393 55.2459 4.81393 55.2459 5.69726C55.2459 7.06393 54.8709 8.17226 54.1209 9.02226C53.3709 9.87226 52.4209 10.4389 51.2709 10.7223L52.4709 11.6473L56.8209 18.5723H54.3959L49.5709 11.0223L47.1209 10.6473V18.5723H45.0459V1.24727ZM49.5459 2.67226C49.3292 2.67226 49.1042 2.67226 48.8709 2.67226C48.6376 2.67226 48.4126 2.6806 48.1959 2.69726C47.9792 2.71393 47.7709 2.7306 47.5709 2.74727C47.3876 2.76393 47.2376 2.78893 47.1209 2.82226V9.27227H49.0709C50.2209 9.27227 51.1709 8.98893 51.9209 8.42227C52.6709 7.8556 53.0459 6.97226 53.0459 5.77227C53.0459 4.87226 52.7376 4.1306 52.1209 3.54727C51.5042 2.96393 50.6459 2.67226 49.5459 2.67226ZM60.7391 13.8973C60.7391 13.2306 60.8557 12.5973 61.0891 11.9973C61.3224 11.3806 61.6391 10.8139 62.0391 10.2973C62.4391 9.7806 62.8891 9.3056 63.3891 8.87227C63.9057 8.43893 64.4391 8.0556 64.9891 7.72227C64.5891 7.12227 64.2391 6.52226 63.9391 5.92226C63.6557 5.32226 63.5141 4.67226 63.5141 3.97226C63.5141 3.57226 63.5807 3.1806 63.7141 2.79726C63.8474 2.41393 64.0557 2.07226 64.3391 1.77226C64.6391 1.47226 65.0141 1.2306 65.4641 1.04726C65.9307 0.863932 66.4891 0.772265 67.1391 0.772265C67.8224 0.772265 68.3974 0.863932 68.8641 1.04726C69.3307 1.21393 69.7057 1.43893 69.9891 1.72227C70.2724 2.0056 70.4724 2.32227 70.5891 2.67226C70.7224 3.02227 70.7891 3.3806 70.7891 3.74726C70.7891 4.44727 70.5141 5.17227 69.9641 5.92226C69.4307 6.6556 68.5807 7.36393 67.4141 8.04726C67.6807 8.5306 67.9891 9.0306 68.3391 9.54726C68.7057 10.0473 69.0891 10.5473 69.4891 11.0473C69.8891 11.5473 70.2974 12.0473 70.7141 12.5473C71.1307 13.0306 71.5474 13.4806 71.9641 13.8973C72.1474 13.6973 72.3307 13.4473 72.5141 13.1473C72.6974 12.8306 72.8724 12.5056 73.0391 12.1723C73.2224 11.8223 73.3807 11.4639 73.5141 11.0973C73.6641 10.7306 73.7974 10.3806 73.9141 10.0473L75.4641 10.7723C75.3641 11.0556 75.2224 11.3973 75.0391 11.7973C74.8557 12.1806 74.6474 12.5806 74.4141 12.9973C74.1974 13.3973 73.9724 13.7889 73.7391 14.1723C73.5057 14.5389 73.2891 14.8473 73.0891 15.0973C73.4391 15.4306 73.7557 15.7223 74.0391 15.9723C74.3224 16.2056 74.5807 16.4139 74.8141 16.5973C75.0641 16.7639 75.2974 16.9223 75.5141 17.0723C75.7474 17.2056 75.9807 17.3389 76.2141 17.4723L74.9641 18.8723C74.0807 18.4389 73.0724 17.6639 71.9391 16.5473C71.6391 16.8473 71.3057 17.1389 70.9391 17.4223C70.5891 17.6889 70.1891 17.9306 69.7391 18.1473C69.2891 18.3639 68.7891 18.5389 68.2391 18.6723C67.7057 18.8056 67.1141 18.8723 66.4641 18.8723C65.6807 18.8723 64.9391 18.7639 64.2391 18.5473C63.5557 18.3306 62.9557 18.0139 62.4391 17.5973C61.9224 17.1639 61.5057 16.6389 61.1891 16.0223C60.8891 15.4056 60.7391 14.6973 60.7391 13.8973ZM70.7641 15.2973C70.2807 14.8139 69.8057 14.2889 69.3391 13.7223C68.8724 13.1556 68.4224 12.5889 67.9891 12.0223C67.5724 11.4556 67.1807 10.9139 66.8141 10.3973C66.4641 9.86393 66.1641 9.39727 65.9141 8.99727C65.4641 9.3306 65.0474 9.67227 64.6641 10.0223C64.2807 10.3723 63.9391 10.7473 63.6391 11.1473C63.3557 11.5306 63.1307 11.9473 62.9641 12.3973C62.8141 12.8473 62.7391 13.3306 62.7391 13.8473C62.7391 14.3639 62.8474 14.8306 63.0641 15.2473C63.2807 15.6473 63.5724 15.9889 63.9391 16.2723C64.3224 16.5389 64.7557 16.7473 65.2391 16.8973C65.7224 17.0473 66.2307 17.1223 66.7641 17.1223C67.1807 17.1223 67.5807 17.0723 67.9641 16.9723C68.3641 16.8556 68.7391 16.7139 69.0891 16.5473C69.4391 16.3806 69.7557 16.1889 70.0391 15.9723C70.3391 15.7556 70.5807 15.5306 70.7641 15.2973ZM65.4641 3.97226C65.4641 4.47226 65.5641 4.97226 65.7641 5.47226C65.9807 5.9556 66.2557 6.43893 66.5891 6.92227C67.4724 6.3556 68.0807 5.83893 68.4141 5.37227C68.7641 4.9056 68.9391 4.49726 68.9391 4.14727C68.9391 3.61393 68.8057 3.1806 68.5391 2.84727C68.2891 2.51393 67.8474 2.34726 67.2141 2.34726C66.6141 2.34726 66.1724 2.49726 65.8891 2.79726C65.6057 3.09726 65.4641 3.48893 65.4641 3.97226Z" fill="#7A57D1"/>
<path d="M91.5754 2.92226H86.1254V18.5723H84.0504V2.92226H78.6004V1.07226H91.5754V2.92226ZM94.1426 1.24727C94.7759 1.1306 95.5009 1.03893 96.3176 0.972264C97.1509 0.905598 97.9092 0.872266 98.5926 0.872266C99.3592 0.872266 100.084 0.955599 100.768 1.12227C101.468 1.28893 102.076 1.56393 102.593 1.94727C103.126 2.3306 103.551 2.8306 103.868 3.44727C104.184 4.06393 104.343 4.81393 104.343 5.69726C104.343 7.06393 103.968 8.17226 103.218 9.02226C102.468 9.87226 101.518 10.4389 100.368 10.7223L101.568 11.6473L105.918 18.5723H103.493L98.6676 11.0223L96.2176 10.6473V18.5723H94.1426V1.24727ZM98.6426 2.67226C98.4259 2.67226 98.2009 2.67226 97.9676 2.67226C97.7342 2.67226 97.5092 2.6806 97.2926 2.69726C97.0759 2.71393 96.8676 2.7306 96.6676 2.74727C96.4842 2.76393 96.3342 2.78893 96.2176 2.82226V9.27227H98.1676C99.3176 9.27227 100.268 8.98893 101.018 8.42227C101.768 7.8556 102.143 6.97226 102.143 5.77227C102.143 4.87226 101.834 4.1306 101.218 3.54727C100.601 2.96393 99.7426 2.67226 98.6426 2.67226ZM116.677 13.7223H110.227L108.477 18.5723H106.427L113.052 0.797265H114.002L120.652 18.5723H118.477L116.677 13.7223ZM110.902 11.9223H116.052L114.102 6.59726L113.477 3.94726H113.452L112.827 6.64726L110.902 11.9223ZM126.403 13.0973L127.003 15.7473H127.028L127.678 13.0473L131.903 1.07226H133.978L127.353 18.8473H126.428L119.678 1.07226H121.953L126.403 13.0973ZM136.062 1.07226H145.587V2.92226H138.137V8.64727H144.962V10.4973H138.137V16.7223H145.712V18.5723H136.062V1.07226ZM159.815 18.5723H149.465V1.07226H151.54V16.7223H159.815V18.5723Z" fill="white"/>
</svg>
