<svg width="160" height="23" viewBox="0 0 160 23" fill="none" xmlns="http://www.w3.org/2000/svg">
<path d="M9.025 13.55C9.025 12.85 8.81667 12.2833 8.4 11.85C7.98333 11.4 7.45833 11.0083 6.825 10.675C6.20833 10.325 5.53333 10 4.8 9.7C4.06667 9.4 3.38333 9.04167 2.75 8.625C2.13333 8.19167 1.61667 7.66667 1.2 7.05C0.783333 6.41667 0.575 5.61667 0.575 4.65C0.575 3.28333 1.05 2.2 2 1.4C2.95 0.6 4.3 0.2 6.05 0.2C7.06667 0.2 7.99167 0.275 8.825 0.425C9.65833 0.575 10.3083 0.766667 10.775 1L10.15 2.825C9.76667 2.64167 9.2 2.46667 8.45 2.3C7.71667 2.13333 6.88333 2.05 5.95 2.05C4.85 2.05 4.025 2.3 3.475 2.8C2.925 3.28333 2.65 3.85833 2.65 4.525C2.65 5.175 2.85833 5.71667 3.275 6.15C3.69167 6.58333 4.20833 6.975 4.825 7.325C5.45833 7.65833 6.14167 7.99167 6.875 8.325C7.60833 8.65833 8.28333 9.05 8.9 9.5C9.53333 9.93333 10.0583 10.4583 10.475 11.075C10.8917 11.6917 11.1 12.4583 11.1 13.375C11.1 14.125 10.9667 14.8 10.7 15.4C10.4333 16 10.0417 16.5167 9.525 16.95C9.00833 17.3833 8.38333 17.7167 7.65 17.95C6.91667 18.1833 6.08333 18.3 5.15 18.3C3.9 18.3 2.86667 18.2 2.05 18C1.23333 17.8167 0.6 17.6083 0.15 17.375L0.85 15.5C1.23333 15.7167 1.8 15.9333 2.55 16.15C3.3 16.35 4.14167 16.45 5.075 16.45C5.625 16.45 6.14167 16.4 6.625 16.3C7.10833 16.1833 7.525 16.0083 7.875 15.775C8.225 15.525 8.5 15.2167 8.7 14.85C8.91667 14.4833 9.025 14.05 9.025 13.55ZM14.4063 0.675C15.0396 0.524999 15.7229 0.424999 16.4563 0.374999C17.1896 0.325 17.9146 0.3 18.6313 0.3C19.3979 0.3 20.1729 0.374999 20.9563 0.524998C21.7563 0.674999 22.4813 0.949999 23.1313 1.35C23.7813 1.75 24.3063 2.3 24.7063 3C25.1229 3.7 25.3313 4.59167 25.3313 5.675C25.3313 6.74167 25.1396 7.64167 24.7563 8.375C24.3729 9.10833 23.8646 9.70833 23.2313 10.175C22.5979 10.625 21.8729 10.95 21.0563 11.15C20.2396 11.35 19.3979 11.45 18.5312 11.45C18.4479 11.45 18.3063 11.45 18.1063 11.45C17.9229 11.45 17.7229 11.45 17.5063 11.45C17.3063 11.4333 17.1063 11.4167 16.9063 11.4C16.7063 11.3833 16.5646 11.3667 16.4813 11.35V18H14.4063V0.675ZM18.6813 2.1C18.2479 2.1 17.8313 2.10833 17.4313 2.125C17.0313 2.14167 16.7146 2.18333 16.4813 2.25V9.5C16.5646 9.53333 16.6979 9.55833 16.8813 9.575C17.0646 9.575 17.2563 9.58333 17.4563 9.6C17.6563 9.6 17.8479 9.6 18.0313 9.6C18.2146 9.6 18.3479 9.6 18.4313 9.6C18.9979 9.6 19.5563 9.55 20.1063 9.45C20.6729 9.33333 21.1813 9.13333 21.6313 8.85C22.0813 8.56667 22.4396 8.16667 22.7063 7.65C22.9896 7.13333 23.1313 6.475 23.1313 5.675C23.1313 4.99167 22.9979 4.425 22.7313 3.975C22.4813 3.50833 22.1396 3.14167 21.7063 2.875C21.2896 2.59167 20.8146 2.39167 20.2813 2.275C19.7479 2.15833 19.2146 2.1 18.6813 2.1ZM43.4311 22.275C43.0311 22.3917 42.6394 22.4667 42.2561 22.5C41.8727 22.55 41.4894 22.575 41.1061 22.575C40.2727 22.575 39.4561 22.4833 38.6561 22.3C37.8727 22.1333 37.1061 21.9417 36.3561 21.725C35.6227 21.525 34.9144 21.3333 34.2311 21.15C33.5477 20.9833 32.8977 20.9 32.2811 20.9C31.8811 20.9 31.4977 20.95 31.1311 21.05V19.225C31.3644 19.175 31.5894 19.1333 31.8061 19.1C32.0227 19.0667 32.2477 19.05 32.4811 19.05C33.1811 19.05 33.8727 19.1333 34.5561 19.3C35.2561 19.4833 35.9644 19.675 36.6811 19.875C37.3977 20.0917 38.1311 20.2833 38.8811 20.45C39.6311 20.6333 40.4227 20.725 41.2561 20.725C41.9894 20.725 42.7144 20.6417 43.4311 20.475V22.275ZM27.2311 9.25C27.2311 6.33333 27.8477 4.1 29.0811 2.55C30.3144 0.983333 32.0727 0.2 34.3561 0.2C35.5894 0.2 36.6561 0.416666 37.5561 0.849999C38.4561 1.28333 39.1977 1.9 39.7811 2.7C40.3811 3.48333 40.8227 4.43333 41.1061 5.55C41.3894 6.65 41.5311 7.88333 41.5311 9.25C41.5311 12.1667 40.9061 14.4083 39.6561 15.975C38.4227 17.525 36.6561 18.3 34.3561 18.3C33.1394 18.3 32.0811 18.0833 31.1811 17.65C30.2977 17.2167 29.5561 16.6083 28.9561 15.825C28.3727 15.025 27.9394 14.075 27.6561 12.975C27.3727 11.8583 27.2311 10.6167 27.2311 9.25ZM29.4311 9.25C29.4311 10.2167 29.5227 11.1333 29.7061 12C29.9061 12.8667 30.2061 13.6333 30.6061 14.3C31.0061 14.95 31.5144 15.475 32.1311 15.875C32.7644 16.2583 33.5061 16.45 34.3561 16.45C35.9061 16.45 37.1227 15.8667 38.0061 14.7C38.8894 13.5167 39.3311 11.7 39.3311 9.25C39.3311 8.3 39.2311 7.39167 39.0311 6.525C38.8477 5.64167 38.5477 4.875 38.1311 4.225C37.7311 3.55833 37.2144 3.03333 36.5811 2.65C35.9644 2.25 35.2227 2.05 34.3561 2.05C32.8227 2.05 31.6144 2.64167 30.7311 3.825C29.8644 4.99167 29.4311 6.8 29.4311 9.25ZM45.0459 0.675C45.6792 0.558332 46.4042 0.466665 47.2209 0.399999C48.0542 0.333333 48.8126 0.3 49.4959 0.3C50.2626 0.3 50.9876 0.383333 51.6709 0.55C52.3709 0.716666 52.9792 0.991666 53.4959 1.375C54.0292 1.75833 54.4542 2.25833 54.7709 2.875C55.0876 3.49167 55.2459 4.24167 55.2459 5.125C55.2459 6.49167 54.8709 7.6 54.1209 8.45C53.3709 9.3 52.4209 9.86667 51.2709 10.15L52.4709 11.075L56.8209 18H54.3959L49.5709 10.45L47.1209 10.075V18H45.0459V0.675ZM49.5459 2.1C49.3292 2.1 49.1042 2.1 48.8709 2.1C48.6376 2.1 48.4126 2.10833 48.1959 2.125C47.9792 2.14167 47.7709 2.15833 47.5709 2.175C47.3876 2.19167 47.2376 2.21667 47.1209 2.25V8.7H49.0709C50.2209 8.7 51.1709 8.41667 51.9209 7.85C52.6709 7.28333 53.0459 6.4 53.0459 5.2C53.0459 4.3 52.7376 3.55833 52.1209 2.975C51.5042 2.39167 50.6459 2.1 49.5459 2.1ZM60.7391 13.325C60.7391 12.6583 60.8557 12.025 61.0891 11.425C61.3224 10.8083 61.6391 10.2417 62.0391 9.725C62.4391 9.20833 62.8891 8.73333 63.3891 8.3C63.9057 7.86667 64.4391 7.48333 64.9891 7.15C64.5891 6.55 64.2391 5.95 63.9391 5.35C63.6557 4.75 63.5141 4.1 63.5141 3.4C63.5141 3 63.5807 2.60833 63.7141 2.225C63.8474 1.84167 64.0557 1.5 64.3391 1.2C64.6391 0.899999 65.0141 0.658332 65.4641 0.474999C65.9307 0.291666 66.4891 0.2 67.1391 0.2C67.8224 0.2 68.3974 0.291666 68.8641 0.474999C69.3307 0.641666 69.7057 0.866666 69.9891 1.15C70.2724 1.43333 70.4724 1.75 70.5891 2.1C70.7224 2.45 70.7891 2.80833 70.7891 3.175C70.7891 3.875 70.5141 4.6 69.9641 5.35C69.4307 6.08333 68.5807 6.79167 67.4141 7.475C67.6807 7.95833 67.9891 8.45833 68.3391 8.975C68.7057 9.475 69.0891 9.975 69.4891 10.475C69.8891 10.975 70.2974 11.475 70.7141 11.975C71.1307 12.4583 71.5474 12.9083 71.9641 13.325C72.1474 13.125 72.3307 12.875 72.5141 12.575C72.6974 12.2583 72.8724 11.9333 73.0391 11.6C73.2224 11.25 73.3807 10.8917 73.5141 10.525C73.6641 10.1583 73.7974 9.80833 73.9141 9.475L75.4641 10.2C75.3641 10.4833 75.2224 10.825 75.0391 11.225C74.8557 11.6083 74.6474 12.0083 74.4141 12.425C74.1974 12.825 73.9724 13.2167 73.7391 13.6C73.5057 13.9667 73.2891 14.275 73.0891 14.525C73.4391 14.8583 73.7557 15.15 74.0391 15.4C74.3224 15.6333 74.5807 15.8417 74.8141 16.025C75.0641 16.1917 75.2974 16.35 75.5141 16.5C75.7474 16.6333 75.9807 16.7667 76.2141 16.9L74.9641 18.3C74.0807 17.8667 73.0724 17.0917 71.9391 15.975C71.6391 16.275 71.3057 16.5667 70.9391 16.85C70.5891 17.1167 70.1891 17.3583 69.7391 17.575C69.2891 17.7917 68.7891 17.9667 68.2391 18.1C67.7057 18.2333 67.1141 18.3 66.4641 18.3C65.6807 18.3 64.9391 18.1917 64.2391 17.975C63.5557 17.7583 62.9557 17.4417 62.4391 17.025C61.9224 16.5917 61.5057 16.0667 61.1891 15.45C60.8891 14.8333 60.7391 14.125 60.7391 13.325ZM70.7641 14.725C70.2807 14.2417 69.8057 13.7167 69.3391 13.15C68.8724 12.5833 68.4224 12.0167 67.9891 11.45C67.5724 10.8833 67.1807 10.3417 66.8141 9.825C66.4641 9.29167 66.1641 8.825 65.9141 8.425C65.4641 8.75833 65.0474 9.1 64.6641 9.45C64.2807 9.8 63.9391 10.175 63.6391 10.575C63.3557 10.9583 63.1307 11.375 62.9641 11.825C62.8141 12.275 62.7391 12.7583 62.7391 13.275C62.7391 13.7917 62.8474 14.2583 63.0641 14.675C63.2807 15.075 63.5724 15.4167 63.9391 15.7C64.3224 15.9667 64.7557 16.175 65.2391 16.325C65.7224 16.475 66.2307 16.55 66.7641 16.55C67.1807 16.55 67.5807 16.5 67.9641 16.4C68.3641 16.2833 68.7391 16.1417 69.0891 15.975C69.4391 15.8083 69.7557 15.6167 70.0391 15.4C70.3391 15.1833 70.5807 14.9583 70.7641 14.725ZM65.4641 3.4C65.4641 3.9 65.5641 4.4 65.7641 4.9C65.9807 5.38333 66.2557 5.86667 66.5891 6.35C67.4724 5.78333 68.0807 5.26667 68.4141 4.8C68.7641 4.33333 68.9391 3.925 68.9391 3.575C68.9391 3.04167 68.8057 2.60833 68.5391 2.275C68.2891 1.94167 67.8474 1.775 67.2141 1.775C66.6141 1.775 66.1724 1.925 65.8891 2.225C65.6057 2.525 65.4641 2.91667 65.4641 3.4Z" fill="#C2741F"/>
<path d="M91.5754 2.35H86.1254V18H84.0504V2.35H78.6004V0.499999H91.5754V2.35ZM94.1426 0.675C94.7759 0.558332 95.5009 0.466665 96.3176 0.399999C97.1509 0.333333 97.9092 0.3 98.5926 0.3C99.3592 0.3 100.084 0.383333 100.768 0.55C101.468 0.716666 102.076 0.991666 102.593 1.375C103.126 1.75833 103.551 2.25833 103.868 2.875C104.184 3.49167 104.343 4.24167 104.343 5.125C104.343 6.49167 103.968 7.6 103.218 8.45C102.468 9.3 101.518 9.86667 100.368 10.15L101.568 11.075L105.918 18H103.493L98.6676 10.45L96.2176 10.075V18H94.1426V0.675ZM98.6426 2.1C98.4259 2.1 98.2009 2.1 97.9676 2.1C97.7342 2.1 97.5092 2.10833 97.2926 2.125C97.0759 2.14167 96.8676 2.15833 96.6676 2.175C96.4842 2.19167 96.3342 2.21667 96.2176 2.25V8.7H98.1676C99.3176 8.7 100.268 8.41667 101.018 7.85C101.768 7.28333 102.143 6.4 102.143 5.2C102.143 4.3 101.834 3.55833 101.218 2.975C100.601 2.39167 99.7426 2.1 98.6426 2.1ZM116.677 13.15H110.227L108.477 18H106.427L113.052 0.224999H114.002L120.652 18H118.477L116.677 13.15ZM110.902 11.35H116.052L114.102 6.025L113.477 3.375H113.452L112.827 6.075L110.902 11.35ZM126.403 12.525L127.003 15.175H127.028L127.678 12.475L131.903 0.499999H133.978L127.353 18.275H126.428L119.678 0.499999H121.953L126.403 12.525ZM136.062 0.499999H145.587V2.35H138.137V8.075H144.962V9.925H138.137V16.15H145.712V18H136.062V0.499999ZM159.815 18H149.465V0.499999H151.54V16.15H159.815V18Z" fill="white"/>
</svg>
