<svg width="24" height="24" viewBox="0 0 24 24" fill="none" xmlns="http://www.w3.org/2000/svg">
<path fill-rule="evenodd" clip-rule="evenodd" d="M18.7809 23.8549C18.8394 23.8901 18.9412 23.9385 19.007 23.9625C19.3811 24.099 19.8816 23.8491 20.0688 23.4324C20.1726 23.2013 23.9195 1.36803 23.9195 0.994394C23.9195 0.407666 23.3024 -0.117861 22.7791 0.0231466C22.4719 0.105934 0.581616 9.89358 0.388694 10.0344C-0.0508045 10.3553 -0.133022 11.1023 0.221332 11.555C0.244555 11.5847 0.26402 11.6104 0.285068 11.6348C0.447364 11.8228 0.703731 11.9295 3.50239 13.1306C5.06756 13.8023 6.3575 14.3624 6.36891 14.3752C6.38033 14.388 6.74625 15.9177 7.18206 17.7746C7.61788 19.6314 8.00738 21.2498 8.04764 21.3711C8.2249 21.905 8.81414 22.176 9.2949 21.9446C9.37879 21.9043 10.1802 21.2792 11.0759 20.5557C12.1911 19.6548 12.5426 19.3708 12.8362 19.4216C12.9713 19.445 13.0942 19.5393 13.2736 19.677C14.9114 20.9341 18.6885 23.7995 18.7809 23.8549ZM20.0366 12.6532C19.2638 17.2114 18.6205 20.9821 18.607 21.0326H18.607C18.5995 21.061 18.5959 21.0849 18.5822 21.095C18.5323 21.1319 18.3478 20.9865 17.3433 20.2162C16.6968 19.7204 15.0189 18.4414 13.6146 17.374C12.2103 16.3066 11.0611 15.4209 11.061 15.4059C11.0605 15.3731 21.392 4.21519 21.4442 4.19209C21.4643 4.18323 21.4719 4.21864 21.4611 4.27077C21.4504 4.32291 20.8094 8.09499 20.0366 12.6532ZM11.0108 17.9772C11.0105 17.9916 10.6776 18.269 10.2709 18.5935C9.86428 18.9181 9.51931 19.1836 9.50433 19.1836C9.50122 19.1836 9.49851 19.1841 9.49589 19.1838C9.46945 19.1808 9.45167 19.1007 9.11986 17.6887C8.95037 16.9675 8.7991 16.3302 8.78371 16.2725C8.76199 16.1912 8.79712 16.2088 8.94076 16.3512C9.04253 16.4522 9.55002 16.8534 10.0685 17.2429C10.587 17.6323 11.011 17.9628 11.0108 17.9772ZM14.2321 9.01094C11.7341 11.7066 9.46445 14.1599 9.18839 14.4628C8.78335 14.9073 8.67805 15.0541 8.64284 15.2234C8.62562 15.3063 8.61671 15.369 8.60185 15.3705C8.57203 15.3734 8.51822 15.1294 8.32509 14.3055C8.07187 13.2251 8.04169 13.1268 7.89446 12.9023C7.89074 12.8966 7.88713 12.8911 7.88362 12.8857C7.86839 12.8624 7.85476 12.8416 7.83972 12.822C7.7185 12.6634 7.5057 12.5748 5.62083 11.767C3.89643 11.028 3.58402 10.8957 3.59689 10.8434C3.60006 10.8305 3.62289 10.8225 3.64924 10.8114C3.70068 10.7899 7.11839 9.26604 11.2442 7.42511C15.3699 5.58417 18.7519 4.08513 18.7597 4.09389C18.7676 4.10265 16.7301 6.31533 14.2321 9.01094Z" fill="white"/>
</svg>
